<svg xmlns="http://www.w3.org/2000/svg" viewBox="0 0 60 60" id="rupee">
  <path fill="#3b3c3d" d="M38 38a3.89 3.89 0 0 1-3.69-5.11L35.61 29H34a1 1 0 0 1 0-2h3a1 1 0 0 1 .81.41 1 1 0 0 1 .14.91l-1.74 5.21A1.88 1.88 0 0 0 38 36a1 1 0 0 1 0 2zM32.73 19.69a1 1 0 1 0-1.46-1.38c-.39.42-1.51 1.58-1.92 1.93-1.08.92-4.75 3.37-4.79 3.4l0 .05a5 5 0 1 0 4.08-.4c.82-.58 1.61-1.16 2-1.53S32.57 19.85 32.73 19.69zM30 28a3 3 0 1 1-3-3A3 3 0 0 1 30 28z"></path>
  <path fill="#3b3c3d" d="M30,47A20,20,0,1,1,50,27,20,20,0,0,1,30,47ZM30,9A18,18,0,1,0,48,27,18,18,0,0,0,30,9Z"></path>
  <path fill="#3b3c3d" d="M30,2A25,25,0,0,0,5,27v6A25,25,0,0,0,23,57h0a24.74,24.74,0,0,0,7,1A25,25,0,0,0,55,33V27A25,25,0,0,0,30,2Zm0,2A23,23,0,1,1,7,27,23,23,0,0,1,30,4ZM29,52v4a22.92,22.92,0,0,1-4-.52v-4A25.12,25.12,0,0,0,29,52Zm2,0a25.12,25.12,0,0,0,4-.47v4A22.92,22.92,0,0,1,31,56Zm6-1a25.13,25.13,0,0,0,4-1.56v3.75a22.54,22.54,0,0,1-4,1.72ZM11,43.22v2.72A22.84,22.84,0,0,1,7.55,38,24.8,24.8,0,0,0,11,43.22Zm2,5.26V45.31a25.25,25.25,0,0,0,4,3V52A23.74,23.74,0,0,1,13,48.48Zm6,4.71V49.44A25,25,0,0,0,23,51h0v3.91A22.54,22.54,0,0,1,19,53.19ZM43,52V48.35a25.25,25.25,0,0,0,4-3v3.17A23.74,23.74,0,0,1,43,52Zm6-6V43.22A24.8,24.8,0,0,0,52.45,38,22.84,22.84,0,0,1,49,45.94Z"></path>
</svg>
