<svg width="24" height="24" viewBox="0 0 24 24" fill="none" xmlns="http://www.w3.org/2000/svg">
<path d="M10.9998 3.05499C9.31534 3.24325 7.71821 3.90331 6.39229 4.95923C5.06637 6.01514 4.06554 7.42399 3.50499 9.02361C2.94444 10.6232 2.84696 12.3486 3.22376 14.0012C3.60056 15.6538 4.43632 17.1664 5.63487 18.365C6.83341 19.5635 8.34603 20.3993 9.99861 20.7761C11.6512 21.1529 13.3766 21.0554 14.9762 20.4949C16.5759 19.9343 17.9847 18.9335 19.0406 17.6076C20.0965 16.2816 20.7566 14.6845 20.9448 13H10.9998V3.05499Z" stroke="black" stroke-linecap="round" stroke-linejoin="round"/>
<path d="M20.488 8.99996H15V3.51196C16.2654 3.96089 17.4147 4.6865 18.3641 5.6359C19.3135 6.5853 20.0391 7.73458 20.488 8.99996Z" stroke="black" stroke-linecap="round" stroke-linejoin="round"/>
</svg>
